<svg width="36" height="36" viewBox="0 0 36 36" fill="none" xmlns="http://www.w3.org/2000/svg">
    <path
        d="M28.7102 19.41C28.7702 18.96 28.8002 18.495 28.8002 18C28.8002 17.52 28.7702 17.04 28.6952 16.59L31.7402 14.22C32.0102 14.01 32.0852 13.605 31.9202 13.305L29.0402 8.32504C28.8602 7.99504 28.4852 7.89004 28.1552 7.99504L24.5702 9.43504C23.8202 8.86504 23.0252 8.38504 22.1402 8.02504L21.6002 4.21504C21.5402 3.85504 21.2402 3.60004 20.8802 3.60004H15.1202C14.7602 3.60004 14.4752 3.85504 14.4152 4.21504L13.8752 8.02504C12.9902 8.38504 12.1802 8.88004 11.4452 9.43504L7.86016 7.99504C7.53016 7.87504 7.15516 7.99504 6.97516 8.32504L4.11016 13.305C3.93016 13.62 3.99016 14.01 4.29016 14.22L7.33516 16.59C7.26016 17.04 7.20016 17.535 7.20016 18C7.20016 18.465 7.23016 18.96 7.30516 19.41L4.26016 21.78C3.99016 21.99 3.91516 22.395 4.08016 22.695L6.96016 27.675C7.14016 28.005 7.51516 28.11 7.84516 28.005L11.4302 26.565C12.1802 27.135 12.9752 27.615 13.8602 27.975L14.4002 31.785C14.4752 32.145 14.7602 32.4 15.1202 32.4H20.8802C21.2402 32.4 21.5402 32.145 21.5852 31.785L22.1252 27.975C23.0102 27.615 23.8202 27.135 24.5552 26.565L28.1402 28.005C28.4702 28.125 28.8452 28.005 29.0252 27.675L31.9052 22.695C32.0852 22.365 32.0102 21.99 31.7252 21.78L28.7102 19.41ZM18.0002 23.4C15.0302 23.4 12.6002 20.97 12.6002 18C12.6002 15.03 15.0302 12.6 18.0002 12.6C20.9702 12.6 23.4002 15.03 23.4002 18C23.4002 20.97 20.9702 23.4 18.0002 23.4Z"
        fill="#96A7AF" />
</svg>